<?xml version="1.0" encoding="utf-8"?>
<!-- Generator: Adobe Illustrator 21.0.2, SVG Export Plug-In . SVG Version: 6.00 Build 0)  -->
<svg version="1.1" id="Layer_1" xmlns="http://www.w3.org/2000/svg" xmlns:xlink="http://www.w3.org/1999/xlink" x="0px" y="0px"
	 viewBox="0 0 1479 295" style="enable-background:new 0 0 1479 295;" xml:space="preserve">
<style type="text/css">
	.st0{fill:#FFFFFF;}
	.st1{opacity:0.8;fill:#FFFFFF;}
	.st2{opacity:0.2;fill-opacity:0.902;}
</style>
<g>
	<g>
		<path class="st0" d="M397.7,92.6V217c-0.8-1-2.4-2.8-5.1-5.4c-2.6-2.6-5.8-5.7-9.6-9.4c-3.8-3.6-8-7.7-12.6-12.1
			c-4.6-4.4-9.3-8.9-14.1-13.4c-4.8-4.5-9.5-8.9-14-13.3c-4.6-4.3-8.7-8.3-12.5-12c-3.8-3.6-6.9-6.7-9.5-9.3c-2.6-2.6-4.2-4.3-5-5.3
			c-0.1-0.2-0.5-0.8-1.3-1.7c-0.8-0.9-1.4-1.8-2-2.5l0.5,5.2v73.5h-19.9V87.2c0.8,1,2.4,2.7,5.1,5.3c2.6,2.6,5.8,5.6,9.6,9.2
			c3.8,3.6,8,7.5,12.6,11.7c4.6,4.2,9.3,8.6,14.1,13c4.8,4.4,9.5,8.8,14,13c4.6,4.3,8.8,8.2,12.6,11.7c3.8,3.5,7,6.5,9.5,9
			c2.6,2.5,4.2,4.2,5,5.2l3.1,4.6l-0.5-5.5V92.6H397.7z"/>
		<path class="st0" d="M502.9,212.2c-0.3-0.8-0.9-2.1-1.7-4.1c-0.8-2-1.8-4.3-3-7.2c-1.2-2.8-2.5-6-3.9-9.4c-1.4-3.4-2.9-7-4.4-10.7
			H449l-13,31.3h-19.7c0.4-1,1.5-3.4,3.1-7.3c1.6-3.9,3.7-8.6,6.1-14.3c2.4-5.7,5.2-12.1,8.2-19.1c3-7,6.1-14.2,9.2-21.4
			c3.2-7.3,6.2-14.4,9.2-21.4c3-7,5.7-13.4,8.2-19.1c2.4-5.7,4.5-10.5,6.1-14.3c1.6-3.9,2.7-6.3,3.1-7.3c0.4,1,1.5,3.4,3.2,7.3
			c1.7,3.9,3.8,8.6,6.2,14.3c2.4,5.7,5.2,12.1,8.2,19.1c3,7,6.1,14.2,9.2,21.4c3.2,7.3,6.2,14.4,9.2,21.4c3,7,5.7,13.4,8.2,19.1
			c2.4,5.7,4.5,10.5,6.1,14.3c1.6,3.9,2.7,6.3,3.1,7.3H502.9z M455.8,164.1h27.1l-11.7-28.4c-0.1-0.1-0.4-0.8-0.8-2.2
			c-0.4-1.4-0.8-2.6-1-3.7c-0.2,1.1-0.5,2.3-1,3.7c-0.4,1.4-0.7,2.1-0.7,2.2L455.8,164.1z M730.3,93.3v19.1h-29.4v99.8h-20.1v-99.8
			h-28.7V93.3H730.3z M1134.2,93.3h20.1v118.9h-20.1V93.3z M1306.7,212.2V93.3h78.9v18.1h-59v32h52.5V162h-52.5v31.6h61.3v18.6
			H1306.7z M562.3,184.9c5.5,6.4,12.9,9.6,22.2,9.6s16.7-3.2,22.2-9.6c5.5-6.4,8.2-15,8.2-25.9V93H635v66.9
			c0,17.2-4.7,30.4-14.2,39.7c-9.4,9.3-21.6,13.9-36.3,13.9s-26.9-4.6-36.3-13.9c-9.4-9.3-14.2-22.5-14.2-39.7V93h20.1v66
			C554.1,169.9,556.8,178.5,562.3,184.9z M968.8,154.2H989V195c-11.3,12.4-27.4,18.6-48.3,18.6c-17.6,0-32.4-5.8-44.3-17.4
			c-11.9-11.6-17.8-26.3-17.8-44c0-17.7,6.1-32.5,18.2-44.4c12.1-11.8,26.8-17.7,43.9-17.7c17.2,0,31.4,5,42.8,15l-10.7,15.4
			c-4.7-4-9.4-6.7-14.1-8.3c-4.7-1.5-10.2-2.3-16.5-2.3c-12.1,0-22.2,3.9-30.4,11.7c-8.2,7.8-12.3,18-12.3,30.7s4,22.9,11.9,30.5
			c8,7.7,17.6,11.5,28.9,11.5c11.3,0,20.8-2.4,28.4-7.3V154.2z M1037.5,184.9c5.5,6.4,12.9,9.6,22.2,9.6c9.3,0,16.7-3.2,22.2-9.6
			s8.2-15,8.2-25.9V93h20.1v66.9c0,17.2-4.7,30.4-14.2,39.7c-9.4,9.3-21.6,13.9-36.3,13.9c-14.8,0-26.9-4.6-36.3-13.9
			c-9.4-9.3-14.2-22.5-14.2-39.7V93h20.1v66C1029.3,169.9,1032,178.5,1037.5,184.9z M1221.8,93c21.4,0,37.8,5.2,49.3,15.6
			c11.5,10.4,17.2,24.9,17.2,43.4s-5.6,33.2-16.7,44c-11.1,10.8-28.2,16.2-51.2,16.2h-39.6V93H1221.8z M1268,152.5
			c0-27.3-15.6-40.9-46.9-40.9h-20.1v81.7h22.4c14.4,0,25.5-3.4,33.2-10.3C1264.2,176.1,1268,165.9,1268,152.5z M846.5,154.2
			c0-5.9-1.1-11.5-3.2-16.8c-2.1-5.3-5.2-10-9.3-14.2c-3.9-4.1-8.5-7.2-13.6-9.4c-5.2-2.2-10.7-3.3-16.4-3.3
			c-5.7,0-11.2,1.1-16.4,3.3c-5.2,2.2-9.8,5.3-13.8,9.5c-4,4.1-7.1,8.8-9.2,14.1c-2.1,5.3-3.2,10.9-3.2,16.9
			c0,5.9,1.1,11.5,3.2,16.7c2.1,5.2,5.2,9.9,9.2,14.1c4,4.2,8.6,7.3,13.8,9.5c5.1,2.2,10.6,3.3,16.4,3.3c5.7,0,11.1-1.1,16.2-3.3
			c5.1-2.2,9.7-5.3,13.8-9.5c4-4.1,7.1-8.8,9.3-14.1C845.5,165.5,846.5,160,846.5,154.2z M866.3,154.2c0,8.3-1.5,16.1-4.6,23.5
			c-3.1,7.4-7.6,14-13.6,19.8c-6,5.8-12.7,10.2-20.3,13.3c-7.5,3.1-15.4,4.6-23.7,4.6c-8.4,0-16.4-1.5-24-4.6
			c-7.6-3.1-14.3-7.5-20.2-13.3c-6-5.8-10.5-12.3-13.5-19.7c-3.1-7.3-4.6-15.2-4.6-23.6c0-8.3,1.5-16.2,4.6-23.6
			c3.1-7.4,7.6-14,13.5-19.8c6-5.8,12.7-10.2,20.2-13.2s15.5-4.5,24-4.5c8.4,0,16.3,1.5,23.8,4.5c7.5,3,14.2,7.4,20.2,13.2
			c6,5.9,10.5,12.6,13.6,19.9C864.7,138.1,866.3,145.9,866.3,154.2z"/>
	</g>
	<g>
		<polygon class="st0" points="4,247.6 75.6,285.4 148.9,247.6 148.9,81.7 4,81.7 		"/>
		<polygon class="st1" points="148,9.6 76.5,47.3 76.5,88.6 148.9,88.6 148.9,82.5 150,82.5 221.4,212.9 221.4,47.3 		"/>
		<polygon class="st2" points="148.9,212.9 221.4,212.9 150,82.5 148.9,82.5 		"/>
	</g>
</g>
</svg>
